<?xml version="1.0" encoding="utf-8"?>
<!-- Generator: Adobe Illustrator 24.1.2, SVG Export Plug-In . SVG Version: 6.00 Build 0)  -->
<svg version="1.1" id="Capa_1" xmlns="http://www.w3.org/2000/svg" xmlns:xlink="http://www.w3.org/1999/xlink" x="0px" y="0px"
	 viewBox="0 0 399.7 87.6" style="enable-background:new 0 0 399.7 87.6;" xml:space="preserve">
<style type="text/css">
	.st0{fill:#13B8C0;}
	.st1{fill:url(#SVGID_1_);}
	.st2{fill:#344A57;}
</style>
<g id="Capa_2_1_">
	<g id="Capa_1-2">
		<circle class="st0" cx="71.2" cy="18.3" r="18.3"/>
		
			<linearGradient id="SVGID_1_" gradientUnits="userSpaceOnUse" x1="-0.4861" y1="3.7846" x2="59.9239" y2="60.7246" gradientTransform="matrix(1 0 0 -1 0 90.1575)">
			<stop  offset="0" style="stop-color:#074287"/>
			<stop  offset="1" style="stop-color:#11A5B7"/>
		</linearGradient>
		<path class="st1" d="M71.2,50.9c-5.1,0-9.9,2.1-13.4,5.8l0,0c-7.2,7.2-18.8,7.2-25.9,0s-7.2-18.8,0-25.9c6.9-7.4,6.4-19-1.1-25.9
			s-19-6.4-25.9,1.1C-1.7,13-1.6,24,5.1,31l0,0c3.3,3.4,5.2,8,5.2,12.7c0,4.8-1.8,9.3-5.2,12.8l0,0c-7,7.3-6.7,18.9,0.7,25.9
			s18.9,6.7,25.9-0.7l0,0c7.1-7.2,18.7-7.2,25.9-0.1c0,0,0.1,0.1,0.1,0.1l0,0c6.9,7.4,18.5,7.8,25.9,0.8c7.4-6.9,7.8-18.5,0.8-25.9
			C81,53,76.2,50.9,71.2,50.9z"/>
		<path class="st2" d="M107.8,61.3h18.6v-6.1h-11.9v-8.6h11.9v-6h-11.9v-7.9h11.9v-6.1h-18.6V61.3z M190.4,61.3h18.5v-6.1H197v-8.6
			h11.9v-6H197v-7.9h11.9v-6.1h-18.5V61.3z M246.9,44.3c0.2-0.3,0.4-0.5,0.6-0.8c1.1-1.8,1.7-3.9,1.6-6c0-1.8-0.4-3.6-1.2-5.2
			c-0.1-0.2-0.2-0.4-0.4-0.6c-1.1-1.7-2.6-3-4.4-3.9c-1-0.5-2.1-0.8-3.2-0.9c-1.3-0.2-4.9-0.3-7.5-0.3h-8.1l0,0l3.1,5.6h6.1
			c2.5,0,6,0.4,7.2,1.3c1.2,1,1.9,2.5,1.8,4.1c0.1,1.7-0.7,3.4-2.1,4.3c-1.6,1-3.4,1.5-5.2,1.5h-1h-2.4l5.8,10.6l4,7.2h8L241,47.9
			C243.3,47.4,245.4,46.2,246.9,44.3L246.9,44.3z M303.8,61.3h6.8V26.2h-6.8V61.3z M399.7,26.2h-7.5l-10.5,17.7l10.5,17.4h7.5
			l-11.1-17.7L399.7,26.2z M374.7,61.3h6.8V26.2h-6.8V61.3z M274.6,26.2h-6.7v35.1h17.6v-6.2h-10.9V26.2z M165.4,48.6L151,26.2h-6.4
			v35.1h6.7V38.2l14.5,23.1h6.3V26.2h-6.6L165.4,48.6z M349.7,48.6l-14.4-22.4H329v35.1h6.7V38.2l14.5,23.1h6.3V26.2h-6.6
			L349.7,48.6z"/>
	</g>
</g>
</svg>
