<?xml version="1.0" encoding="UTF-8"?>
<svg width="143px" height="130px" viewBox="0 0 143 130" version="1.1" xmlns="http://www.w3.org/2000/svg" xmlns:xlink="http://www.w3.org/1999/xlink">
    <!-- Generator: Sketch 51.3 (57544) - http://www.bohemiancoding.com/sketch -->
    <title>Logo-Minecon(2)</title>
    <desc>Created with Sketch.</desc>
    <defs></defs>
    <g id="Logo-Minecon(2)" stroke="none" stroke-width="1" fill="none" fill-rule="evenodd">
        <g id="logo-minecon" transform="translate(0.000000, -1.000000)" fill-rule="nonzero">
            <g id="Fondo">
                <polygon id="Fill-2" fill="#EB3C46" points="58 131.008372 142.789816 131.008372 142.789816 0.902074495 58 0.902074495"></polygon>
                <polygon id="Fill-1" fill="#0F69B4" points="-1.42108547e-14 131.008372 58.4975092 131.008372 58.4975092 0.902074495 -1.42108547e-14 0.902074495"></polygon>
            </g>
            <g id="Gobierno-de-Chile" transform="translate(64.000000, 118.163718)" fill="#FFFFFF">
                <path d="M5.7380598,6.718464 C4.8815612,7.1227 4.1676871,7.302153 3.367863,7.302153 C1.4675769,7.302153 0.5757974,5.969559 0.5757974,3.960741 C0.5757974,2.036965 1.5325087,0.732844 3.5187449,0.732844 C4.4874667,0.732844 5.1071333,0.967369 5.6048184,1.295553 L5.0782331,2.225784 C4.7220467,1.989761 4.1857029,1.821548 3.5281281,1.821548 C2.390884,1.821548 1.8733066,2.683594 1.8733066,3.941634 C1.8733066,5.434573 2.4186583,6.250914 3.4902199,6.250914 C3.9038315,6.250914 4.2986766,6.16662 4.5989391,6.025755 L4.5989391,4.862873 L3.7240493,4.862873 L3.6579916,3.949876 L5.7380598,3.949876 L5.7380598,6.718464 Z" id="Fill-3"></path>
                <path d="M9.613585,4.900524 C9.613585,3.793089 9.2844223,3.406461 8.7112963,3.406461 C8.137795,3.406461 7.8187661,3.801331 7.8187661,4.900524 C7.8187661,5.970121 8.1088948,6.399833 8.7112963,6.399833 C9.3129472,6.399833 9.613585,5.998219 9.613585,4.900524 M10.8754381,4.900524 C10.8754381,6.466519 10.0834958,7.301965 8.7112963,7.301965 C7.3293383,7.301965 6.5479052,6.47551 6.5479052,4.900524 C6.5479052,3.548075 7.3011887,2.515568 8.7112963,2.515568 C10.1030129,2.515568 10.8754381,3.548075 10.8754381,4.900524" id="Fill-5"></path>
                <path d="M13.0199501,5.93187 C13.2079895,6.185501 13.5281444,6.400545 13.8565564,6.400545 C14.391399,6.400545 14.7877454,6.007548 14.7877454,4.900112 C14.7877454,3.801669 14.4394409,3.416164 13.8756982,3.416164 C13.5653018,3.416164 13.2282572,3.576885 13.0199501,3.782562 L13.0199501,5.93187 Z M12.9355013,3.077865 C13.1430577,2.797259 13.6384908,2.515156 14.1568189,2.515156 C15.2392651,2.515156 16.0180709,3.28579 16.0180709,4.900112 C16.0180709,6.485588 15.0782493,7.302303 14.0055617,7.302303 C13.3483622,7.302303 12.9644016,7.047922 12.670895,6.653052 L12.4453228,7.207144 L11.788874,7.207144 L11.788874,0.733369 L13.0199501,0.733369 L13.0199501,2.337202 L12.9355013,3.077865 Z" id="Fill-7"></path>
                <path d="M17.2896824,1.848559 L18.5320184,1.848559 L18.5320184,0.733256 L17.2896824,0.733256 L17.2896824,1.848559 Z M17.3268399,7.207406 L17.3268399,3.510086 L16.8002546,3.398444 L16.8002546,2.609827 L18.5481575,2.609827 L18.5481575,7.207406 L17.3268399,7.207406 Z" id="Fill-9"></path>
                <path d="M21.5769801,3.415865 C20.9674472,3.415865 20.7219827,3.969582 20.7219827,4.513559 L22.4045785,4.513559 C22.4045785,3.923501 22.2180404,3.415865 21.5769801,3.415865 Z M20.7219827,5.237363 C20.7219827,5.969409 21.1363449,6.373271 21.9076441,6.373271 C22.3850614,6.373271 22.8489669,6.175086 23.251694,5.978026 L23.486274,6.84232 C23.1015627,7.047622 22.489778,7.302003 21.7571375,7.302003 C20.3177543,7.302003 19.4815234,6.419726 19.4815234,4.899813 C19.4815234,3.48255 20.1589906,2.515605 21.6340299,2.515605 C23.0264971,2.515605 23.5808567,3.547363 23.5808567,4.703876 L23.5808567,5.237363 L20.7219827,5.237363 Z" id="Fill-11"></path>
                <path d="M27.1279323,3.631695 C26.9785517,3.585239 26.7709953,3.558265 26.5536803,3.558265 C26.2252682,3.558265 25.9336383,3.69913 25.7264572,3.869216 L25.7264572,7.207256 L24.5040136,7.207256 L24.5040136,2.609677 L25.360137,2.609677 C25.4066777,2.825095 25.4547197,3.024403 25.4926278,3.228207 L25.5297853,3.228207 C25.669032,2.900772 26.0841449,2.525009 26.6276199,2.525009 C26.8745858,2.525009 27.0513654,2.562098 27.1549559,2.591695 C27.1451974,2.938236 27.1451974,3.285527 27.1279323,3.631695" id="Fill-12"></path>
                <path d="M30.7302186,7.207256 L30.7302186,4.476507 C30.7302186,3.7823 30.4648617,3.45449 29.9033709,3.45449 C29.58209,3.45449 29.3103525,3.596104 29.0937882,3.735844 L29.0937882,7.207256 L27.8623367,7.207256 L27.8623367,2.610052 L28.7087016,2.610052 L28.8967409,3.134922 C29.1590953,2.825095 29.6672895,2.516017 30.3548906,2.516017 C31.5199089,2.516017 31.9793105,3.201233 31.9793105,4.365239 L31.9793105,7.207256 L30.7302186,7.207256 Z" id="Fill-13"></path>
                <path d="M35.8663958,4.900524 C35.8663958,3.793089 35.5346058,3.406461 34.9611045,3.406461 C34.3902304,3.406461 34.0715769,3.801331 34.0715769,4.900524 C34.0715769,5.970121 34.3617055,6.399833 34.9611045,6.399833 C35.563506,6.399833 35.8663958,5.998219 35.8663958,4.900524 M37.125997,4.900524 C37.125997,6.466519 36.334805,7.301965 34.9611045,7.301965 C33.5821491,7.301965 32.7992147,6.47551 32.7992147,4.900524 C32.7992147,3.548075 33.5532488,2.515568 34.9611045,2.515568 C36.355824,2.515568 37.125997,3.548075 37.125997,4.900524" id="Fill-14"></path>
                <path d="M42.98408,3.660991 C42.797542,3.54785 42.507038,3.435084 42.1486,3.435084 C41.566466,3.435084 41.198644,3.830703 41.198644,4.900674 C41.198644,5.997994 41.548825,6.410098 42.13171,6.410098 C42.439104,6.410098 42.751001,6.261366 42.98408,6.015977 L42.98408,3.660991 Z M43.100432,2.966409 C43.022364,2.703037 42.98408,2.469637 42.98408,2.121971 L42.98408,0.733182 L44.209151,0.733182 L44.209151,7.206957 L43.210778,7.206957 L43.07003,6.701193 C42.883492,6.981798 42.439104,7.302115 41.848337,7.302115 C40.803424,7.302115 39.967568,6.551337 39.967568,4.908916 C39.967568,3.388628 40.832324,2.515343 41.951928,2.515343 C42.450739,2.515343 42.845584,2.68468 43.100432,2.966409 Z" id="Fill-15"></path>
                <path d="M47.23696,3.415865 C46.625926,3.415865 46.382338,3.969582 46.382338,4.513559 L48.064559,4.513559 C48.064559,3.923501 47.87727,3.415865 47.23696,3.415865 Z M46.382338,5.237363 C46.382338,5.969409 46.795574,6.373271 47.565372,6.373271 C48.045041,6.373271 48.505944,6.175086 48.912425,5.978026 L49.146254,6.84232 C48.760792,7.047622 48.149383,7.302003 47.416742,7.302003 C45.97811,7.302003 45.141503,6.419726 45.141503,4.899813 C45.141503,3.48255 45.817845,2.515605 47.29401,2.515605 C48.685351,2.515605 49.240086,3.547363 49.240086,4.703876 L49.240086,5.237363 L46.382338,5.237363 Z" id="Fill-16"></path>
                <path d="M54.838067,7.302378 C53.050755,7.302378 52.102301,6.102032 52.102301,3.990562 C52.102301,2.045807 53.042497,0.733444 54.838067,0.733444 C55.702072,0.733444 56.482755,0.920389 56.999957,1.26768 L56.52892,2.242867 C56.201634,2.000476 55.626256,1.811657 54.968306,1.811657 C53.91476,1.811657 53.390051,2.591657 53.390051,3.979697 C53.390051,5.444164 53.91476,6.222666 54.948038,6.222666 C55.569581,6.222666 56.191125,5.960793 56.624253,5.641225 L57.017597,6.627651 C56.388172,7.058862 55.674298,7.302378 54.838067,7.302378" id="Fill-17"></path>
                <path d="M57.866364,7.207256 L57.866364,0.733481 L59.09744,0.733481 L59.09744,2.432098 C59.09744,2.750542 58.996102,3.068986 58.977335,3.143164 C59.238188,2.825095 59.624025,2.516017 60.28085,2.516017 C61.609511,2.516017 61.984464,3.201233 61.984464,4.365239 L61.984464,7.207256 L60.735372,7.207256 L60.735372,4.476507 C60.735372,4.355124 60.715855,4.261089 60.667813,4.195902 C60.629905,3.679648 60.365674,3.45449 59.908149,3.45449 C59.586868,3.45449 59.314755,3.596104 59.09744,3.735844 L59.09744,7.207256 L57.866364,7.207256 Z" id="Fill-18"></path>
                <path d="M63.320669,1.848559 L64.563005,1.848559 L64.563005,0.733256 L63.320669,0.733256 L63.320669,1.848559 Z M63.359703,7.207406 L63.359703,3.510086 L62.831992,3.398444 L62.831992,2.609827 L64.580646,2.609827 L64.580646,7.207406 L63.359703,7.207406 Z" id="Fill-19"></path>
                <path d="M65.702426,5.987841 L65.702426,0.733144 L66.914361,0.733144 L66.914361,5.921156 C66.914361,6.307409 67.14819,6.364354 67.656009,6.364354 L67.656009,7.227899 C67.656009,7.227899 67.299823,7.301703 66.980043,7.301703 C66.039846,7.301703 65.702426,6.804931 65.702426,5.987841" id="Fill-20"></path>
                <path d="M70.375711,3.415865 C69.763927,3.415865 69.521089,3.969582 69.521089,4.513559 L71.20331,4.513559 C71.20331,3.923501 71.01452,3.415865 70.375711,3.415865 Z M69.521089,5.237363 C69.521089,5.969409 69.934325,6.373271 70.704123,6.373271 C71.184168,6.373271 71.645071,6.175086 72.048924,5.978026 L72.283129,6.84232 C71.897291,7.047622 71.288134,7.302003 70.555493,7.302003 C69.11611,7.302003 68.278753,6.419726 68.278753,4.899813 C68.278753,3.48255 68.956596,2.515605 70.433136,2.515605 C71.824478,2.515605 72.378837,3.547363 72.378837,4.703876 L72.378837,5.237363 L69.521089,5.237363 Z" id="Fill-21"></path>
            </g>
            <g id="Ministerio-de-Ec.." transform="translate(64.000000, 8.163718)" fill="#FFFFFF">
                <path d="M8.0387835,8.8933545 L7.8725131,2.11911816 L7.8244711,2.11911816 C7.6818465,2.97479539 7.5388465,3.59257637 7.4315026,4.0563804 L6.2882533,8.8933545 L3.9904948,8.8933545 L2.8949121,4.0563804 C2.7879436,3.59257637 2.6449436,2.97479539 2.4899331,2.11911816 L2.4426417,2.11911816 L2.3352979,8.8933545 L0.9064239,8.8933545 L1.2160696,0.87081844 L3.8951614,0.87081844 C3.8951614,0.87081844 4.7760564,4.9120576 5.2407126,7.5030663 L5.2763688,7.5030663 C5.8119619,4.9236715 6.859878,0.87081844 6.859878,0.87081844 L9.4916785,0.87081844 L9.8013241,8.8933545 L8.0387835,8.8933545 Z" id="Fill-25"></path>
                <path d="M11.574937,2.10682997 L13.1464357,2.10682997 L13.1464357,0.69293948 L11.574937,0.69293948 L11.574937,2.10682997 Z M11.6222283,8.8934294 L11.6222283,4.18683 L10.9436352,4.0440922 L10.9436352,3.07002882 L13.1700814,3.07002882 L13.1700814,8.8934294 L11.6222283,8.8934294 Z" id="Fill-26"></path>
                <path d="M18.2063837,8.8933545 L18.2063837,5.4350548 C18.2063837,4.5554006 17.8730924,4.1395504 17.1584677,4.1395504 C16.753864,4.1395504 16.4085622,4.3175043 16.1345727,4.4962075 L16.1345727,8.8933545 L14.5750845,8.8933545 L14.5750845,3.06995389 L15.6466462,3.06995389 L15.8846042,3.73531412 C16.2182709,3.34306628 16.8612079,2.95119308 17.7300924,2.95119308 C19.2070084,2.95119308 19.7898929,3.81848415 19.7898929,5.292317 L19.7898929,8.8933545 L18.2063837,8.8933545 Z" id="Fill-27"></path>
                <path d="M21.4926063,2.10682997 L23.064105,2.10682997 L23.064105,0.69293948 L21.4926063,0.69293948 L21.4926063,2.10682997 Z M21.5398976,8.8934294 L21.5398976,4.18683 L20.8616798,4.0440922 L20.8616798,3.07002882 L23.0877507,3.07002882 L23.0877507,8.8934294 L21.5398976,8.8934294 Z" id="Fill-28"></path>
                <path d="M25.8502029,4.602755 C25.8502029,5.5063862 28.3742843,5.2332738 28.3742843,7.1345706 C28.3742843,8.1921787 27.5883472,9.0122651 26.0765257,9.0122651 C25.3735362,9.0122651 24.7185887,8.8103343 24.3256202,8.5844265 L24.6476517,7.5028415 C24.9208906,7.6931585 25.4928906,7.9070778 26.0284837,7.9070778 C26.5404312,7.9070778 26.8857331,7.6216023 26.8857331,7.2649452 C26.8857331,6.218951 24.3976832,6.5639942 24.3976832,4.5791527 C24.3976832,3.7234755 25.0522554,2.9509683 26.6237541,2.9509683 C27.2310349,2.9509683 27.8619614,3.07010375 28.2669404,3.23606916 L28.0526281,4.3652334 C27.6596596,4.1869049 27.1597226,4.0681441 26.6477751,4.0681441 C26.1121819,4.0681441 25.8502029,4.2700749 25.8502029,4.602755" id="Fill-29"></path>
                <path d="M31.7553898,9.0122651 C30.7194843,9.0122651 30.0408911,8.5252334 30.0408911,7.063389 L30.0408911,4.1752911 L29.1720066,4.1752911 L29.1720066,3.07010375 L30.0408911,3.07010375 L30.0408911,2.05970029 L31.5767336,1.56030548 L31.5767336,3.07010375 L33.1369724,3.07010375 L33.1369724,4.1752911 L31.5767336,4.1752911 L31.5767336,7.0274236 C31.5767336,7.4316599 31.7794108,7.6931585 32.1960249,7.6931585 C32.5173058,7.6931585 32.8509724,7.598 33.0889304,7.4792392 L33.3272638,8.6203919 C32.9823373,8.8219481 32.3746811,9.0122651 31.7553898,9.0122651" id="Fill-30"></path>
                <path d="M36.458739,4.092196 C35.6844367,4.092196 35.3631559,4.793147 35.3631559,5.4824841 L37.494644,5.4824841 C37.494644,4.7335793 37.267946,4.092196 36.458739,4.092196 Z M35.3631559,6.3977291 C35.3631559,7.3249625 35.8874892,7.8355965 36.863342,7.8355965 C37.458613,7.8355965 38.065893,7.6096888 38.577841,7.3485648 L38.875476,8.4417637 C38.38755,8.7032622 37.589602,9.0123401 36.672676,9.0123401 C34.8752294,9.0123401 33.8032924,7.8951643 33.8032924,5.9695159 C33.8032924,4.175366 34.6725522,2.95104323 36.542061,2.95104323 C38.304227,2.95104323 38.99483,4.2581614 38.99483,5.7200058 L38.99483,6.3977291 L35.3631559,6.3977291 Z" id="Fill-31"></path>
                <path d="M43.483304,4.3653084 C43.292637,4.3061153 43.019398,4.2701499 42.757044,4.2701499 C42.34043,4.2701499 41.971482,4.4484784 41.709128,4.6623977 L41.709128,8.8932046 L40.161275,8.8932046 L40.161275,3.06980403 L41.244472,3.06980403 L41.411118,3.85429971 L41.447149,3.85429971 C41.625805,3.43807493 42.149763,2.96265706 42.840367,2.96265706 C43.149637,2.96265706 43.387971,3.01061095 43.519335,3.04582709 L43.483304,4.3653084 Z" id="Fill-32"></path>
                <path d="M44.852276,2.10682997 L46.42415,2.10682997 L46.42415,0.69293948 L44.852276,0.69293948 L44.852276,2.10682997 Z M44.900318,8.8934294 L44.900318,4.18683 L44.220974,4.0440922 L44.220974,3.07002882 L46.447795,3.07002882 L46.447795,8.8934294 L44.900318,8.8934294 Z" id="Fill-33"></path>
                <path d="M51.508119,5.9695908 C51.508119,4.5669395 51.091504,4.0802824 50.364869,4.0802824 C49.638985,4.0802824 49.23363,4.5793026 49.23363,5.9695908 C49.23363,7.3250375 49.602953,7.8712622 50.364869,7.8712622 C51.126785,7.8712622 51.508119,7.359879 51.508119,5.9695908 M53.103638,5.9695908 C53.103638,7.9548069 52.103389,9.012415 50.364869,9.012415 C48.614714,9.012415 47.6261,7.9664207 47.6261,5.9695908 C47.6261,4.2582363 48.578683,2.95111816 50.364869,2.95111816 C52.126659,2.95111816 53.103638,4.2582363 53.103638,5.9695908" id="Fill-34"></path>
                <path d="M60.521135,4.4009741 C60.282426,4.2582363 59.913854,4.1158732 59.461208,4.1158732 C58.722938,4.1158732 58.258657,4.6148934 58.258657,5.9695908 C58.258657,7.359879 58.699292,7.8832507 59.437187,7.8832507 C59.830531,7.8832507 60.223124,7.6933084 60.521135,7.3842305 L60.521135,4.4009741 Z M60.663759,3.52169452 C60.568426,3.18863977 60.521135,2.89155043 60.521135,2.45172334 L60.521135,0.69316427 L62.068612,0.69316427 L62.068612,8.8932795 L60.806759,8.8932795 L60.627728,8.2515216 C60.38977,8.6081787 59.830531,9.012415 59.079875,9.012415 C57.75872,9.012415 56.698418,8.0615793 56.698418,5.9815793 C56.698418,4.0563055 57.794376,2.95111816 59.21124,2.95111816 C59.842166,2.95111816 60.342103,3.16503746 60.663759,3.52169452 Z" id="Fill-35"></path>
                <path d="M65.902551,4.092196 C65.128249,4.092196 64.806969,4.793147 64.806969,5.4824841 L66.938457,5.4824841 C66.938457,4.7335793 66.712134,4.092196 65.902551,4.092196 Z M64.806969,6.3977291 C64.806969,7.3249625 65.331302,7.8355965 66.307155,7.8355965 C66.902425,7.8355965 67.509706,7.6096888 68.021654,7.3485648 L68.319664,8.4417637 C67.831738,8.7032622 67.03379,9.0123401 66.116864,9.0123401 C64.319042,9.0123401 63.247105,7.8951643 63.247105,5.9695159 C63.247105,4.175366 64.116365,2.95104323 65.985874,2.95104323 C67.748415,2.95104323 68.438643,4.2581614 68.438643,5.7200058 L68.438643,6.3977291 L64.806969,6.3977291 Z" id="Fill-36"></path>
                <polygon id="Fill-37" points="1.0613218 21.0066196 1.0613218 12.9840836 6.0028913 12.9840836 6.0028913 14.3035648 2.6211853 14.3035648 2.6211853 16.2764179 5.2049438 16.2764179 5.0859648 17.6550922 2.6211853 17.6550922 2.6211853 19.7111153 6.0028913 19.7111153 6.0028913 21.0066196"></polygon>
                <path d="M11.4079535,20.6142219 C11.0746622,20.7929251 10.2891005,21.1252305 9.4074549,21.1252305 C7.6693105,21.1252305 6.6217698,20.138804 6.6217698,18.0947695 C6.6217698,16.193098 7.6693105,15.0643084 9.396195,15.0643084 C10.1697462,15.0643084 10.8367042,15.2186599 11.3963184,15.5393516 L10.9917147,16.5969597 C10.5747252,16.3474496 10.039132,16.2406772 9.5271845,16.2406772 C8.7172265,16.2406772 8.205279,16.7872767 8.205279,18.0947695 C8.205279,19.4138761 8.6935808,19.9488617 9.5388197,19.9488617 C10.1461005,19.9488617 10.7413709,19.7229539 11.1223289,19.5090346 L11.4079535,20.6142219 Z" id="Fill-38"></path>
                <path d="M16.0870937,18.0826686 C16.0870937,16.6800173 15.6708549,16.1933602 14.9442197,16.1933602 C14.2179598,16.1933602 13.8129808,16.6923804 13.8129808,18.0826686 C13.8129808,19.4381153 14.1819283,19.9843401 14.9442197,19.9843401 C15.7061357,19.9843401 16.0870937,19.4733314 16.0870937,18.0826686 M17.6826134,18.0826686 C17.6826134,20.0678847 16.6827394,21.1254928 14.9442197,21.1254928 C13.1940648,21.1254928 12.205826,20.0794986 12.205826,18.0826686 C12.205826,16.3713141 13.1584087,15.064196 14.9442197,15.064196 C16.706385,15.064196 17.6826134,16.3713141 17.6826134,18.0826686" id="Fill-39"></path>
                <path d="M22.4691349,21.0066196 L22.4691349,17.5479452 C22.4691349,16.6686657 22.1354682,16.2528156 21.4212189,16.2528156 C21.0162399,16.2528156 20.6709381,16.4307695 20.3973239,16.609098 L20.3973239,21.0066196 L18.8374604,21.0066196 L18.8374604,15.183219 L19.909022,15.183219 L20.1473554,15.8485793 C20.4806467,15.4563314 21.1235837,15.0644582 21.9928436,15.0644582 C23.4693843,15.0644582 24.0526441,15.9317493 24.0526441,17.4055821 L24.0526441,21.0066196 L22.4691349,21.0066196 Z" id="Fill-40"></path>
                <path d="M28.9697423,18.0826686 C28.9697423,16.6800173 28.5531281,16.1933602 27.8264929,16.1933602 C27.1006084,16.1933602 26.6956294,16.6923804 26.6956294,18.0826686 C26.6956294,19.4381153 27.0645769,19.9843401 27.8264929,19.9843401 C28.5884089,19.9843401 28.9697423,19.4733314 28.9697423,18.0826686 M27.8264929,21.1254928 C26.0763381,21.1254928 25.0880992,20.0794986 25.0880992,18.0826686 C25.0880992,16.3713141 26.0403066,15.064196 27.8264929,15.064196 C29.5886583,15.064196 30.5652619,16.3713141 30.5652619,18.0826686 C30.5652619,20.0678847 29.5650126,21.1254928 27.8264929,21.1254928 Z" id="Fill-41"></path>
                <path d="M36.887551,17.4056196 L36.887551,21.0066571 L35.3156769,21.0066571 L35.3156769,17.5479827 C35.3156769,16.6687032 34.9940207,16.2524784 34.2681362,16.2524784 C33.8627819,16.2524784 33.5535115,16.4304323 33.279522,16.6091354 L33.279522,21.0066571 L31.7200339,21.0066571 L31.7200339,15.1828818 L32.7675745,15.1828818 L33.0295535,15.8602305 C33.3628449,15.4559942 33.9348449,15.064121 34.7560627,15.064121 C35.7086454,15.064121 36.28027,15.3492219 36.578281,15.8842075 C36.923207,15.4683573 37.530488,15.064121 38.340071,15.064121 C40.007278,15.064121 40.494829,15.9314121 40.494829,17.4056196 L40.494829,21.0066571 L38.911695,21.0066571 L38.911695,17.5479827 C38.911695,16.6687032 38.542748,16.2524784 37.816488,16.2524784 C37.43553,16.2524784 37.089477,16.4304323 36.828249,16.6091354 C36.87554,16.8466571 36.887551,17.1201441 36.887551,17.4056196" id="Fill-42"></path>
                <path d="M42.233424,21.0066196 L42.233424,16.3000202 L41.554455,16.1576571 L41.554455,15.183219 L43.781277,15.183219 L43.781277,21.0066196 L42.233424,21.0066196 Z M41.38781,14.2795879 L41.233175,13.3883199 L44.245182,12.5446311 L44.44786,13.6854092 L41.38781,14.2795879 Z" id="Fill-43"></path>
                <path d="M48.376869,18.4631527 L47.412651,18.4631527 C46.769339,18.4631527 46.471704,18.7718559 46.471704,19.2120576 C46.471704,19.7470432 46.757704,20.0677349 47.340964,20.0677349 C47.709911,20.0677349 48.090869,19.9013948 48.376869,19.675487 L48.376869,18.4631527 Z M48.817129,21.0065821 L48.603192,20.317245 C48.305932,20.7211066 47.721922,21.1253429 46.900328,21.1253429 C45.733809,21.1253429 44.947496,20.3768127 44.947496,19.2592622 C44.947496,18.1776772 45.745069,17.5362939 47.150297,17.5362939 L48.376869,17.5362939 L48.376869,17.23883 C48.376869,16.4899251 47.948244,16.2527781 47.352974,16.2527781 C46.66237,16.2527781 46.07911,16.430732 45.602444,16.6446513 L45.209851,15.5390893 C45.79311,15.2895793 46.591058,15.0644207 47.507985,15.0644207 C49.163181,15.0644207 49.877055,15.8249395 49.877055,17.3103862 L49.877055,21.0065821 L48.817129,21.0065821 Z" id="Fill-44"></path>
                <path d="M51.091392,19.330781 L52.662891,19.330781 L52.662891,21.1017032 C52.662891,22.1001182 52.091641,22.5155937 51.091392,22.6231153 L51.091392,21.8146427 C51.305329,21.7670634 51.460339,21.5647579 51.460339,21.0065447 L51.091392,20.8285908 L51.091392,19.330781 Z" id="Fill-45"></path>
                <polygon id="Fill-46" points="2.6211102 26.416755 2.6211102 28.6151412 5.2048688 28.6151412 5.0858898 29.9941902 2.6211102 29.9941902 2.6211102 33.1198098 1.0612467 33.1198098 1.0612467 25.0972738 6.0028163 25.0972738 6.0028163 26.416755"></polygon>
                <path d="M9.777078,30.1958963 C9.777078,28.793245 9.3608391,28.3062133 8.6342039,28.3062133 C7.9079441,28.3062133 7.5029651,28.8052334 7.5029651,30.1958963 C7.5029651,31.5509683 7.8719126,32.0975677 8.6342039,32.0975677 C9.3961199,32.0975677 9.777078,31.5861844 9.777078,30.1958963 M11.3725976,30.1958963 C11.3725976,32.1807378 10.3727236,33.2383458 8.6342039,33.2383458 C6.8840491,33.2383458 5.8954349,32.1927262 5.8954349,30.1958963 C5.8954349,28.4845418 6.8480176,27.1774236 8.6342039,27.1774236 C10.3963693,27.1774236 11.3725976,28.4845418 11.3725976,30.1958963" id="Fill-47"></path>
                <path d="M17.6948866,29.5186974 L17.6948866,33.1197349 L16.1233879,33.1197349 L16.1233879,29.6610605 C16.1233879,28.781781 15.8017318,28.3655562 15.0754719,28.3655562 C14.6708682,28.3655562 14.3608472,28.5438847 14.0872331,28.7225879 L14.0872331,33.1197349 L12.5273696,33.1197349 L12.5273696,27.2959597 L13.5752856,27.2959597 L13.8372646,27.9733084 C14.1705559,27.5694467 14.7418052,27.1771988 15.5633984,27.1771988 C16.5159811,27.1771988 17.0876058,27.4622997 17.3852409,27.9972853 C17.7305428,27.5814352 18.3378236,27.1771988 19.1477816,27.1771988 C20.8146136,27.1771988 21.3029155,28.0444899 21.3029155,29.5186974 L21.3029155,33.1197349 L19.7194063,33.1197349 L19.7194063,29.6610605 C19.7194063,28.781781 19.3500835,28.3655562 18.6238236,28.3655562 C18.2424903,28.3655562 17.8975638,28.5438847 17.6352094,28.7225879 C17.6832514,28.9597349 17.6948866,29.2335965 17.6948866,29.5186974" id="Fill-48"></path>
                <path d="M24.9936291,28.3183141 C24.2193273,28.3183141 23.8980465,29.0192651 23.8980465,29.7086023 L26.0295346,29.7086023 C26.0295346,28.9596974 25.8028365,28.3183141 24.9936291,28.3183141 Z M23.8980465,30.6238473 C23.8980465,31.5510807 24.4223798,32.0617147 25.3982328,32.0617147 C25.9935031,32.0617147 26.600784,31.8358069 27.1127315,31.574683 L27.410742,32.6678818 C26.9224402,32.929755 26.124868,33.2384582 25.2079415,33.2384582 C23.4101199,33.2384582 22.3381829,32.1216571 22.3381829,30.1960086 C22.3381829,28.4014841 23.2074428,27.177536 25.076952,27.177536 C26.8391173,27.177536 27.529721,28.4842795 27.529721,29.9464986 L27.529721,30.6238473 L23.8980465,30.6238473 Z" id="Fill-49"></path>
                <path d="M32.3279152,33.1196599 L32.3279152,29.6609856 C32.3279152,28.7817061 31.9946239,28.3658559 31.2799992,28.3658559 C30.8753955,28.3658559 30.5300937,28.5438098 30.2557289,28.722513 L30.2557289,33.1196599 L28.696616,33.1196599 L28.696616,27.2962594 L29.7681777,27.2962594 L30.0057604,27.9616196 C30.339427,27.5693718 30.9827394,27.1774986 31.8512486,27.1774986 C33.3281646,27.1774986 33.9114244,28.0447896 33.9114244,29.5186225 L33.9114244,33.1196599 L32.3279152,33.1196599 Z" id="Fill-50"></path>
                <path d="M37.340234,33.2383833 C36.304329,33.2383833 35.6257354,32.7513516 35.6257354,31.2895072 L35.6257354,28.4014092 L34.7564756,28.4014092 L34.7564756,27.2962219 L35.6257354,27.2962219 L35.6257354,26.2858184 L37.161578,25.7864236 L37.161578,27.2962219 L38.721817,27.2962219 L38.721817,28.4014092 L37.161578,28.4014092 L37.161578,31.2539164 C37.161578,31.6577781 37.364255,31.9192767 37.780494,31.9192767 C38.10215,31.9192767 38.435817,31.8244928 38.673775,31.705732 L38.911733,32.8465101 C38.566806,33.0484409 37.95915,33.2383833 37.340234,33.2383833" id="Fill-51"></path>
                <path d="M43.257507,30.1958963 C43.257507,28.793245 42.841268,28.3062133 42.114633,28.3062133 C41.388373,28.3062133 40.983394,28.8052334 40.983394,30.1958963 C40.983394,31.5509683 41.352341,32.0975677 42.114633,32.0975677 C42.876173,32.0975677 43.257507,31.5861844 43.257507,30.1958963 M44.853026,30.1958963 C44.853026,32.1807378 43.853152,33.2383458 42.114633,33.2383458 C40.364478,33.2383458 39.376239,32.1927262 39.376239,30.1958963 C39.376239,28.4845418 40.328822,27.1774236 42.114633,27.1774236 C43.876798,27.1774236 44.853026,28.4845418 44.853026,30.1958963" id="Fill-52"></path>
                <path d="M50.86597,32.9888732 L49.782022,33.1791902 L48.043503,27.2962219 L49.794033,27.2962219 L51.03224,32.1807752 L51.056261,32.1807752 L52.306479,27.2962219 L53.853957,27.2962219 L52.056135,33.2623602 C51.556198,34.9381239 50.710584,35.5562795 49.508033,35.5562795 C48.853461,35.5562795 48.11519,35.187634 47.865222,34.9740893 L48.353524,33.9161066 L48.496148,33.9161066 C48.543815,33.9516974 49.031741,34.3319568 49.57972,34.3319568 C50.199012,34.3319568 50.603991,33.9037435 50.817928,33.1552133 L50.86597,32.9888732 Z" id="Fill-53"></path>
                <polygon id="Fill-54" points="4.0141029 38.5297954 4.0141029 45.2328501 2.3949375 45.2328501 2.3949375 38.5297954 0.454116 38.5297954 0.454116 37.2103141 6.0146016 37.2103141 6.0146016 38.5297954"></polygon>
                <path d="M9.8960194,45.2327003 L9.6580614,44.5193862 C9.3844472,44.8760432 8.7651559,45.3514611 7.8362189,45.3514611 C6.3833239,45.3514611 5.7167412,44.5437378 5.7167412,42.938781 L5.7167412,39.4092997 L7.2645942,39.4092997 L7.2645942,42.9507695 C7.2645942,43.8424121 7.5862504,44.1634784 8.2888646,44.1634784 C8.6934682,44.1634784 9.0627911,44.0087522 9.3364052,43.8188098 L9.3364052,39.4092997 L10.9202898,39.4092997 L10.9202898,45.2327003 L9.8960194,45.2327003 Z" id="Fill-55"></path>
                <path d="M15.5275921,40.7046542 C15.3373008,40.6450865 15.0636866,40.6094957 14.8013323,40.6094957 C14.3847181,40.6094957 14.0157706,40.7878242 13.7534163,41.0017435 L13.7534163,45.2325504 L12.2059386,45.2325504 L12.2059386,39.4091499 L13.2895108,39.4091499 L13.4561564,40.1936455 L13.4921879,40.1936455 C13.6704688,39.7774207 14.1940514,39.3020029 14.8850304,39.3020029 C15.1946761,39.3020029 15.4326341,39.3499568 15.5636236,39.3851729 L15.5275921,40.7046542 Z" id="Fill-56"></path>
                <path d="M16.8970892,38.446513 L18.4685879,38.446513 L18.4685879,37.0322478 L16.8970892,37.0322478 L16.8970892,38.446513 Z M16.9443806,45.2327378 L16.9443806,40.5261383 L16.2657874,40.3837752 L16.2657874,39.4093372 L18.4922336,39.4093372 L18.4922336,45.2327378 L16.9443806,45.2327378 Z" id="Fill-57"></path>
                <path d="M21.2546483,40.9421009 C21.2546483,41.845732 23.7787297,41.5726196 23.7787297,43.4739164 C23.7787297,44.5315245 22.9927927,45.351611 21.4809711,45.351611 C20.778357,45.351611 20.1230341,45.1496801 19.7304409,44.9237723 L20.0520971,43.8421873 C20.3257113,44.0325043 20.897336,44.2464236 21.4329291,44.2464236 C21.9448766,44.2464236 22.2901785,43.9609481 22.2901785,43.6042911 C22.2901785,42.5582968 19.8021286,42.9033401 19.8021286,40.9184986 C19.8021286,40.0628213 20.4567008,39.2903141 22.0281995,39.2903141 C22.6354803,39.2903141 23.2664068,39.4094496 23.6713858,39.575415 L23.4570735,40.7045793 C23.0644803,40.5262507 22.5645433,40.4074899 22.0522205,40.4074899 C21.5166273,40.4074899 21.2546483,40.6094207 21.2546483,40.9421009" id="Fill-58"></path>
                <path d="M30.1606207,41.6317378 L30.1606207,45.2327752 L28.5887467,45.2327752 L28.5887467,41.7741009 C28.5887467,40.8948213 28.2670906,40.4785965 27.541206,40.4785965 C27.136227,40.4785965 26.8265814,40.6569251 26.5525919,40.8356282 L26.5525919,45.2327752 L24.9931037,45.2327752 L24.9931037,39.4093746 L26.0410197,39.4093746 L26.3026234,40.0863487 C26.63629,39.682487 27.2079147,39.2902392 28.0291325,39.2902392 C28.9817152,39.2902392 29.5533399,39.5753401 29.8513504,40.1103256 C30.1966522,39.6944755 30.8039331,39.2902392 31.6131404,39.2902392 C33.2807231,39.2902392 33.7682743,40.1579049 33.7682743,41.6317378 L33.7682743,45.2327752 L32.1847651,45.2327752 L32.1847651,41.7741009 C32.1847651,40.8948213 31.8158176,40.4785965 31.0895577,40.4785965 C30.7085997,40.4785965 30.3629226,40.6569251 30.1013189,40.8356282 C30.1486102,41.0727752 30.1606207,41.3466369 30.1606207,41.6317378" id="Fill-59"></path>
                <path d="M38.673662,42.3089366 C38.673662,40.9062853 38.257048,40.4196282 37.530413,40.4196282 C36.804528,40.4196282 36.399549,40.9186484 36.399549,42.3089366 C36.399549,43.6643833 36.768497,44.2106081 37.530413,44.2106081 C38.292704,44.2106081 38.673662,43.6992248 38.673662,42.3089366 M40.269182,42.3089366 C40.269182,44.2941527 39.268933,45.3517608 37.530413,45.3517608 C35.780258,45.3517608 34.7916438,44.3057666 34.7916438,42.3089366 C34.7916438,40.5975821 35.7442265,39.290464 37.530413,39.290464 C39.292578,39.290464 40.269182,40.5975821 40.269182,42.3089366" id="Fill-60"></path>
            </g>
            <g id="Isologo" transform="translate(6.000000, 8.163718)" fill="#FFFFFF">
                <path d="M24.4697344,11.9664121 C24.5995979,11.8611383 24.8698341,11.628487 24.6510178,11.1894092 C24.5463013,10.9833573 24.2726871,10.9638761 24.3912908,10.9384006 C25.858073,10.5948559 26.6421333,8.4582853 26.597094,7.6389481 C27.3503774,8.332781 29.0427318,8.5309654 30.2696793,7.4894669 C31.0627475,6.7274496 31.4448315,4.7253746 30.0887711,3.72208934 C29.3959155,3.21070605 28.166716,3.16612392 27.3972934,3.75955331 C27.1540808,3.35119597 26.7314614,3.06010086 26.2788157,3.05710375 C26.2724352,2.91436599 26.2983328,1.95004323 25.7252068,1.32476945 C24.9918157,0.52716138 22.9297633,0.46721902 22.1817344,1.34012968 C20.7006898,0.96961095 18.777884,1.65145533 18.8852278,3.96635447 C17.844443,3.55649856 17.2487974,3.55012968 16.6985664,3.59958213 C16.1813643,3.64903458 15.49001,4.1102161 15.2513013,4.4271614 C15.1413302,4.5680259 15.0185979,4.7658357 14.9285192,4.9377954 C14.7599969,5.2704755 14.629758,5.7076801 14.6774247,6.1943372 C14.7547423,7.01817 15.1612226,7.7116282 15.7602462,8.040562 C16.5867186,8.4923775 17.6342593,8.4309366 18.0084614,8.3717435 C18.2948367,8.308804 18.6033564,8.2042795 18.9291412,7.8644813 C19.0248499,7.7663256 19.0950362,7.6108501 19.2346583,7.6089769 C19.2312803,7.8176513 19.1562147,8.9273343 20.3962987,9.4544524 C20.4019286,9.5076513 20.419569,9.5589769 20.4323302,9.6384006 C20.8241727,11.1650576 21.854073,10.9762392 21.8702121,11.0826369 C21.4141885,11.3587464 21.6074824,11.7588617 21.7152016,11.9660375 C22.4118105,11.7524928 22.9282619,11.7228963 23.0922803,11.7228963 C23.2562987,11.7228963 23.7723748,11.7524928 24.4697344,11.9664121" id="Fill-22"></path>
                <path d="M27.1476252,16.5615937 L24.4734126,18.473755 L25.4969323,21.4929769 L22.9300635,19.5493458 L20.365822,21.4929769 L21.3874651,18.473755 L18.7140031,16.5634669 L18.7038693,16.5597205 L22.0037538,16.5597205 L22.9300635,13.5034092 L23.8563732,16.5597205 L27.1540058,16.5597205 L27.1476252,16.5615937 Z M27.950452,16.57583 C27.945948,15.0450519 28.9811029,13.8615648 28.99499,13.8462046 C29.1072131,13.7195764 29.1199743,13.6008156 29.1117171,13.5176455 C29.091074,13.3760317 28.9811029,13.2804986 28.9585832,13.2778761 C28.6632,13.0781931 27.9992446,12.6724582 27.9992446,12.6724582 L27.945948,12.6260029 L27.8892735,12.6260029 C27.8172105,12.6260029 27.7624126,12.6690865 27.6712079,12.7372709 C27.4872971,12.8785101 27.1461239,13.1418818 26.5493522,13.1418818 C26.443885,13.1418818 26.3357906,13.1321412 26.2205648,13.116781 C25.9090425,13.0736974 25.3862105,12.8077032 25.3862105,12.8077032 C25.2150609,12.7185389 25.0026252,12.6260029 24.9159244,12.5862911 L24.8780163,12.5720548 C24.0230189,12.2176455 23.2956331,12.1887983 23.0922052,12.1887983 C22.8891528,12.1887983 22.1613916,12.2176455 21.3041423,12.5720548 L21.2647328,12.5862911 C21.2204441,12.6068963 21.1412499,12.6428617 21.0504205,12.6844467 L20.5294651,12.9309597 C20.3545622,13.0073862 20.131242,13.0935533 19.9600924,13.116781 C19.8482446,13.1321412 19.7401501,13.1418818 19.6320556,13.1418818 C19.037536,13.1418818 18.6948614,12.8785101 18.5094493,12.7372709 C18.4182446,12.6690865 18.3615701,12.6260029 18.2932604,12.6260029 L18.2410898,12.6312478 L18.2103129,12.651853 C18.2065596,12.6526023 17.5290924,13.069951 17.2479717,13.2640144 C17.202557,13.284245 17.0948378,13.3749078 17.0730688,13.5198934 C17.0640609,13.6008156 17.0749454,13.7195764 17.1905465,13.8462046 C17.2318325,13.8975303 18.2373365,15.0611614 18.2343339,16.5994323 C18.2606068,16.7736398 18.3371738,17.6975014 17.5497354,19.0555706 C17.5129533,19.124879 16.6459454,20.7062334 17.5940241,22.0927752 C17.5985281,22.1062622 18.3075228,23.3968963 20.3800845,23.3968963 C20.5493575,23.3968963 22.0791948,23.4249942 22.6065307,24.4016801 C22.6286751,24.440268 22.8748903,24.8306427 22.9724756,25.0228329 L23.0922052,25.2569827 L23.2081816,25.0228329 C23.3083942,24.8332651 23.5497302,24.445513 23.586137,24.3915648 C24.1037144,23.4249942 25.633927,23.3968963 25.8039507,23.3968963 C27.8476121,23.3968963 28.5780005,22.1126311 28.5780005,22.1126311 C29.5489743,20.6916225 28.6399297,19.063438 28.6335491,19.0555706 C27.8476121,17.6975014 27.9234283,16.7736398 27.950452,16.57583 Z" id="Fill-23"></path>
                <path d="M33.0577664,30.7466916 C32.9586798,30.6260576 32.8269396,30.0723401 32.8269396,30.0723401 C32.749622,29.7610144 32.6377743,29.5047608 32.5289291,29.2455101 C32.870853,29.1503516 33.2018924,29.0345879 33.5370604,28.9255677 C33.5010289,29.9554524 33.0577664,30.7466916 33.0577664,30.7466916 M28.8642257,31.9564035 C28.5279318,31.906951 28.3522782,30.8733199 28.2659528,30.0712161 C29.532685,29.9086225 30.7592572,29.6830893 31.9366614,29.3833775 C32.3296299,30.3581902 32.4320945,31.2917925 32.4320945,31.2917925 C30.9776982,32.784732 28.8642257,31.9564035 28.8642257,31.9564035 M29.3202493,27.1816196 C30.0029711,27.1924841 30.5385643,27.4622248 30.9581811,27.8570951 C30.1632362,28.0384207 29.2309213,28.2070086 28.2017717,28.3508703 C28.3740472,27.1681326 29.3202493,27.1816196 29.3202493,27.1816196 M27.8208136,25.7819654 C31.035874,24.562513 32.8269396,26.7320519 32.8269396,26.7320519 C32.9665617,26.9073833 33.0611444,27.0860865 33.1549764,27.2655389 C32.7068346,27.4064035 32.1348346,27.5637522 31.5005302,27.7222248 C30.3490236,26.633147 28.9603097,26.5409856 28.84621,26.5162594 C27.963063,26.3218213 27.7540052,25.8036945 27.8208136,25.7819654 M24.1264593,28.6745591 C24.6230184,27.6600346 25.7103438,26.9913026 26.1149475,26.433464 C26.343147,26.1202651 26.678315,26.1097752 26.678315,26.1097752 C27.1440971,26.1049049 27.2390551,27.185366 27.3730472,28.4640115 C26.3874357,28.5775274 25.289601,28.6449625 24.1264593,28.6745591 M19.0403885,28.4632622 C19.1751312,27.1842421 19.2697139,26.1049049 19.7347454,26.1097752 C19.7347454,26.1097752 20.0699134,26.1202651 20.2984882,26.433464 C20.7008399,26.9913026 21.7885407,27.6600346 22.2858504,28.6745591 C21.1234593,28.6438386 20.024874,28.5764035 19.0403885,28.4632622 M17.5668504,26.5162594 C17.4516247,26.5409856 16.0659134,26.633147 14.9147822,27.7196023 C14.279727,27.5603804 13.7069764,27.4019078 13.25921,27.2606686 C13.3526667,27.083464 13.445748,26.9055101 13.5842441,26.7320519 C13.5842441,26.7320519 15.3771864,24.562513 18.5922467,25.7819654 C18.6553018,25.8036945 18.4511234,26.3218213 17.5668504,26.5162594 M15.4586325,27.8533487 C15.8782493,27.4603516 16.4138425,27.1924841 17.0946877,27.1816196 C17.0946877,27.1816196 18.0382625,27.1692565 18.2101627,28.3489971 C17.1821391,28.2043862 16.2524514,28.0361729 15.4586325,27.8533487 M17.5495853,31.9564035 C17.5495853,31.9564035 15.4349869,32.784732 13.9805906,31.2917925 C13.9805906,31.2917925 14.0834304,30.356317 14.4782756,29.3800058 C15.6560551,29.6800922 16.881126,29.906 18.1482336,30.0685937 C18.0615328,30.8714467 17.8858793,31.906951 17.5495853,31.9564035 M13.5842441,30.0723401 C13.5842441,30.0723401 13.4547559,30.6260576 13.355294,30.7466916 C13.355294,30.7466916 12.9101549,29.9517061 12.8741234,28.9191988 C13.2104173,29.0278444 13.540706,29.1458559 13.8845066,29.2421383 C13.7745354,29.5021383 13.6615617,29.7591412 13.5842441,30.0723401 M8.6085197,28.6352219 C8.6085197,28.6352219 8.5098084,28.721389 8.4017139,28.5917637 C7.3507953,27.3045014 8.9545722,25.8426571 9.464643,26.7335504 C9.464643,26.7335504 8.8611155,26.7552795 8.9275486,27.1797464 C8.9275486,27.1797464 8.9384331,27.6188242 9.4807822,27.5918501 C9.4807822,27.5918501 10.2366929,27.5142997 10.0576614,26.6042997 C10.0576614,26.6042997 9.9600761,26.1940692 9.4972966,26.0539539 C9.4972966,26.0539539 8.1735144,25.695049 7.610147,26.8440692 C7.610147,26.8440692 7.4949213,27.1194294 7.4780315,27.5367781 C7.324147,27.4135216 7.1507454,27.3164899 6.962706,27.2857695 C6.7146142,27.0257695 6.2822362,24.9161729 6.558853,23.8323401 C8.5833727,23.4097464 9.2079186,21.7399769 9.3017507,21.2671816 C9.7116089,21.4020519 9.9521942,21.8733487 9.9717113,22.0730317 C10.0043648,22.3465187 9.8775039,22.6304957 10.037769,22.8526571 C10.2738504,23.1812161 10.7981837,23.479804 11.1205906,23.6974697 C11.229811,23.7675274 12.7146089,24.9142997 12.9052756,24.9528876 C13.1177113,24.9970951 13.2471995,24.8393718 13.4318609,24.8719654 C13.4979186,24.8850778 13.5425827,24.9330317 13.593252,24.9727435 C13.593252,24.9727435 13.6994698,25.0795159 13.8511024,25.1866628 C13.4618871,25.4440403 12.9536929,25.8134352 12.282231,26.4091124 C12.282231,26.4091124 11.7687822,27.0733487 8.6085197,28.6352219 M45.8384383,29.260121 C45.502895,28.8543862 44.6144934,29.0559424 44.6144934,29.0559424 C45.0926614,27.6368069 43.7782625,27.2587954 43.7782625,27.2587954 C43.3079764,27.1347896 42.9990814,27.2232046 42.7979055,27.3595735 C42.7979055,27.3595735 42.7888976,27.3651931 42.783643,27.3696888 C42.7798898,27.3738098 42.7753858,27.3749337 42.7753858,27.3794294 C42.7404803,27.403781 42.7104541,27.4251354 42.6815538,27.454732 C42.5637008,27.5791124 42.4897612,27.7462017 42.4897612,27.927902 C42.4897612,28.3032911 42.7979055,28.6097464 43.1747349,28.6097464 C43.3207375,28.6097464 43.4558556,28.5629164 43.5673281,28.4864899 C43.7024462,28.3902075 43.8015328,28.2463458 43.8379396,28.081879 C44.0222257,28.1980173 44.0901601,28.3999481 44.0901601,28.3999481 C44.4729948,29.6100346 43.1098031,30.0442421 43.1098031,30.0442421 C40.1004226,30.9463746 38.259063,29.3949914 38.259063,29.3949914 L38.7856483,29.1143862 C38.9669318,29.0345879 39.1324514,29.0109856 39.262315,29.0109856 C39.2570604,29.0349625 39.2521811,29.0683055 39.2521811,29.0997752 C39.2521811,29.4227147 39.5224173,29.6890836 39.8497034,29.6890836 C40.1777402,29.6890836 40.4464751,29.4227147 40.4464751,29.0997752 C40.4423465,28.8543862 40.3256194,28.7348761 40.3256194,28.7348761 C39.973937,28.2051354 38.7586247,28.5557983 38.7586247,28.5557983 C39.1632283,27.5592565 38.8017874,26.8440692 38.8017874,26.8440692 C38.2406719,25.695049 36.9138871,26.0539539 36.9138871,26.0539539 C36.4514829,26.1940692 36.355399,26.6042997 36.355399,26.6042997 C36.1759921,27.5142997 36.9319029,27.5918501 36.9319029,27.5918501 C37.4761286,27.6188242 37.4817585,27.1797464 37.4817585,27.1797464 C37.5519449,26.7552795 36.950294,26.7335504 36.950294,26.7335504 C37.4577375,25.8426571 39.0585118,27.3045014 38.0117218,28.5917637 C37.9025013,28.721389 37.802664,28.6352219 37.802664,28.6352219 C35.9282756,27.7087378 34.9982126,27.1044438 34.5425643,26.7605245 C34.4982756,26.251389 34.0516352,25.9932622 34.13721,25.8576427 C34.2111496,25.8276715 34.4757559,25.9599193 34.6236352,25.7388818 C34.6776824,25.6579597 34.8004147,24.8524841 34.900252,24.2811585 C36.5592021,25.0375562 37.9738136,24.8071527 38.259063,24.715366 C38.404315,24.6561729 38.5214173,24.5520231 38.5240446,24.3351066 C38.5506929,23.7045879 36.9138871,19.9971527 36.8692231,18.688536 C37.6420236,19.0706686 38.1198163,17.8800634 38.259063,17.5166628 C39.2979711,17.9898329 39.6560341,27.6113314 40.4551076,27.9353948 C40.8552073,28.0972392 41.0128451,27.4423689 41.0500026,27.3209856 C42.3347507,23.0317349 42.37979,18.856 42.2949659,17.4555965 C42.1666037,15.2609568 41.9886982,13.2974697 41.4591102,11.4909568 C41.1337008,10.3790259 40.5039003,8.1090836 39.0333648,7.7996311 C38.3450131,7.6538963 37.8233071,8.2945303 37.8353176,8.8699769 C37.8458268,9.3682478 38.1907533,9.6095159 38.0376194,10.0987954 C37.854084,10.4187378 37.6690472,10.7675274 37.5789685,11.125683 C37.4907664,11.4827147 37.8086693,11.6291988 37.7062047,12.0090836 C37.2411732,11.9386513 37.0084698,12.3458847 36.2769554,12.1596888 C36.753622,11.9386513 36.7600026,10.5824553 36.1759921,10.3505533 C36.088916,10.3145879 35.9898294,10.3014755 35.973315,10.2228012 C35.973315,10.2228012 36.1624803,10.0231182 36.2563123,9.8279308 C36.5918556,9.1419654 36.589979,8.5372968 36.3231207,8.080611 C36.5644567,8.1012161 36.8170525,7.6576427 36.8500814,7.3039827 L36.8557113,7.3069798 C36.8564619,7.3032334 36.8564619,7.286 36.8564619,7.2788818 L36.8564619,7.276634 C36.8617165,7.1833487 36.8455774,6.873147 36.9863255,6.5835504 C37.0309895,6.4891412 36.9863255,6.3804957 36.9048793,6.3381614 C36.8211811,6.2995735 36.7115853,6.3351643 36.6635433,6.4306974 C36.5197927,6.7349049 36.1752415,6.5655677 36.3212441,6.2609856 C36.3647822,6.1643285 36.3212441,6.0586801 36.2382966,6.0174697 C36.1572257,5.9796311 36.0461286,6.0092277 36.0003386,6.1062594 C35.8618425,6.3984784 35.5274252,6.2347608 35.6655459,5.9425418 C35.7094593,5.8481326 35.6674226,5.739487 35.5859764,5.7005245 C35.5067822,5.6626859 35.3941837,5.6930317 35.3461417,5.7911873 C35.2038924,6.0916484 34.8563386,5.9253084 35.0004646,5.6259712 C35.0451286,5.5251931 35.0004646,5.4184207 34.9190184,5.377585 C34.8379475,5.3427435 34.7294777,5.3730893 34.6814357,5.4682478 C34.5283018,5.7870663 34.4217087,5.9200634 34.2614436,6.0478156 C33.9360341,6.1055101 34.0227349,6.4786513 34.0613937,6.7311585 C33.4533622,6.5996599 32.9947113,7.0623401 32.9766955,7.4778156 L32.9080105,7.4778156 C32.4054462,7.4894294 31.9239003,7.7494294 31.9618084,8.2113602 C31.9798241,8.4743573 32.2879685,8.8006686 32.4054462,8.8051643 C32.4594934,8.7875562 32.3780472,8.5264323 32.6396509,8.5103228 C32.8776089,8.4968357 33.2326693,8.6998905 33.275832,8.9257983 C33.3280026,9.1828012 33.1159423,9.8035793 33.9371601,9.895366 C33.9371601,9.895366 33.9307795,10.021245 33.9191444,10.1542421 C33.6252625,10.1343862 33.5486955,10.1182767 33.2559396,10.1632334 C32.7376115,10.2460288 32.0267402,10.5374986 31.8533386,11.050755 C31.8195591,11.1365476 31.8052966,11.3163746 31.8195591,11.4396311 C31.8304436,11.5449049 31.9280289,11.6760288 31.9152677,11.8049049 C31.9055092,11.8667205 31.7962887,11.9970951 31.753126,12.0368069 C31.5376877,12.263464 31.1364619,12.4781326 30.7817769,12.4964899 C30.3899344,12.5159712 30.0078504,12.263464 29.8543412,12.0529164 C29.3326352,11.3530893 30.0078504,10.141879 29.9977165,9.6900634 C29.967315,8.4885937 28.4472362,9.2045303 27.84521,9.5173545 C27.127958,9.8942421 26.555958,10.5000346 26.0744121,11.0949625 C25.8094304,11.4216484 25.5121706,11.8326282 25.366168,12.1799193 C25.3395197,12.2436081 25.2817192,12.2544726 25.2182887,12.2525994 C25.5268084,12.3908415 26.0699081,12.5935216 26.5000341,12.5987666 C26.5000341,12.5987666 27.339643,12.7130317 27.941294,12.2117637 C27.941294,12.2117637 28.0272441,12.137585 28.1484751,12.137585 C28.2351759,12.137585 28.3117428,12.1742997 28.3785512,12.235366 C28.3849318,12.2436081 28.4614987,12.3054236 28.5515774,12.3773545 C28.6044987,12.4208127 28.6713071,12.4728876 28.7414934,12.5287089 C28.7779003,12.5568069 28.8128058,12.5845303 28.8514646,12.6152507 C28.9524278,12.6935504 29.0597717,12.7767205 29.1689921,12.8606398 C29.1885092,12.876 29.2076509,12.8909856 29.228294,12.9063458 C29.346147,12.9973833 29.464,13.0869222 29.5687165,13.1652219 C29.6921995,13.2581326 29.8100525,13.345049 29.8783622,13.3915043 L29.8843675,13.3963746 C29.8967533,13.4064899 29.9267795,13.4353372 29.9365381,13.4810432 C29.939916,13.526 29.9185223,13.5799481 29.8779869,13.6301499 C29.8753596,13.633147 29.8119291,13.7032046 29.7158451,13.8245879 C29.5150446,14.0789683 29.1742467,14.579487 28.9145197,15.1916484 C29.198643,15.6846744 29.6749344,16.2728588 30.3591575,16.2796023 C30.9052598,16.2844726 31.1285801,16.0128588 31.2096509,15.6633199 C31.2197848,15.6711873 31.2483097,15.7071527 31.2528136,15.7090259 C31.3188714,15.6502075 31.6195092,17.2765187 32.0169816,17.718219 C31.6446562,17.890928 31.0692782,18.4746167 31.3819265,20.0799481 C31.0745328,19.8353084 30.5104147,19.4089683 30.2409291,19.1302363 C30.0787874,18.7975562 29.7616352,18.0130605 28.8525906,17.9373833 C28.9839554,18.3404957 29.1749974,18.7938098 29.4681286,19.2973256 C29.4733832,19.3111873 30.0284934,20.3309568 29.8550919,21.488219 C30.2364252,21.098219 30.177874,20.0278732 30.177874,20.0278732 C30.1913858,20.0136369 30.2465591,19.997902 30.2623228,19.9919078 C30.3400157,19.9862882 30.7220997,20.7303228 31.3819265,20.8857983 C32.2414278,22.352513 33.2078976,23.2838674 34.1417139,23.8724265 C34.1244488,24.2272104 34.1679869,25.0735216 33.9390367,25.0735216 C33.203769,25.2361153 32.5259265,24.7415908 31.8781102,24.7749337 C31.822937,24.7487089 31.7655118,24.7224841 31.7655118,24.7224841 C28.9787008,23.3827723 25.3049895,26.2588818 24.6920787,26.8167205 C24.3696719,27.1130605 23.9965958,26.7084496 23.9965958,26.7084496 C23.7770289,26.4315908 23.4884016,26.3064611 23.2054042,26.3386801 C22.9254094,26.3064611 22.6345302,26.4315908 22.4164646,26.7084496 C22.4164646,26.7084496 22.0415118,27.1130605 21.719105,26.8167205 C21.1395984,26.2877291 17.810063,23.7143285 15.0881837,24.5921095 C15.0810525,24.4437522 14.7139816,24.3684496 14.6115171,24.3298617 C14.3949528,24.2684207 14.2057874,24.0983343 14.0706693,24.0308991 C13.7745354,23.8825418 13.2926142,23.9743285 12.9551942,23.9346167 C12.8238294,23.9151354 12.6399186,23.846951 12.5228163,23.7765187 C12.086685,23.5086513 11.5893753,23.1812161 11.3116325,22.7889683 C11.2677192,22.7249049 11.158874,22.5765476 11.137105,22.5514467 C11.0019869,22.3821095 10.9351785,22.2566052 10.8315879,21.976 C10.682958,21.4398905 10.9145354,20.8644438 10.992979,20.3208415 C11.0515302,19.918853 11.0380184,19.8930029 11.0740499,19.4610432 C12.8024357,18.8683631 13.5084278,17.5751066 13.9115302,16.8853948 C13.950189,16.8314467 14.0571575,16.6119078 14.0571575,16.6119078 C14.1340997,16.6227723 14.2106667,16.6291412 14.2932388,16.6328876 C14.9845932,16.6370086 15.4496247,16.2522536 16.2055354,16.3440403 C16.2055354,16.3856254 16.3072493,16.7029452 16.7974278,16.9033775 C16.8120656,17.3982767 16.8480971,17.8062594 17.0361365,18.1902651 C17.0774226,18.256951 17.1292178,18.3135216 17.167126,18.3693429 C17.4902835,17.5743573 17.5758583,16.9547032 17.5848661,16.5811873 C17.5615958,16.5489683 17.5409528,16.5032622 17.5274409,16.4320807 C17.3649239,15.5921383 16.9730814,15.3617349 16.6037585,15.1496888 C16.4217244,15.0507839 16.2197979,15.0196888 16.046021,14.8941844 C15.7772861,14.709487 15.4927874,14.5124265 15.3145066,14.1673833 C15.3145066,14.1673833 15.4023333,14.0845879 15.4965407,13.9658271 C15.9792126,13.4611873 16.2209239,12.7194006 16.3973281,11.9060576 C16.7670262,11.4025418 17.7920472,11.5996023 18.1823885,11.6707839 C18.2833517,11.6823977 18.4533753,11.7209856 18.5325696,11.7820519 C18.6425407,11.8581037 18.668063,12.0319366 18.8211969,12.0978732 C18.9829633,12.1641844 19.1664987,12.1151066 19.3627953,12.0978732 C19.4348583,12.1799193 19.4738924,12.2930605 19.5256877,12.3957118 C19.5256877,12.3957118 19.5789843,12.4908703 19.6806982,12.5980173 C20.1599921,12.5882767 20.8044304,12.3350202 21.0742913,12.1986513 C21.0420131,12.1780461 21.0142388,12.1574409 20.9999764,12.1357118 C20.7834121,11.8611009 20.4610052,11.5591412 20.1584908,11.510438 C19.7764068,11.4474986 19.6960866,11.106951 19.3301417,11.0338963 C19.2374357,11.0084207 18.9127769,10.9600922 18.8031811,10.999804 C17.9939738,11.1047032 17.4227244,10.7982478 16.666063,10.7442997 C15.9469344,10.6937233 15.9244147,11.1841268 15.6620604,11.5887378 C15.5648504,11.7408415 15.4496247,11.9199193 15.3306457,12.0330605 C15.1320971,12.2248761 14.9016457,12.2316196 14.6610604,12.4133199 L14.5499633,12.1151066 C14.4835302,11.8667205 14.3908241,11.6093429 14.2275564,11.3658271 C13.8368399,10.7532911 13.3913255,10.280121 12.5228163,10.080438 C12.3569213,10.0130029 12.3317743,10.0032622 12.2218031,9.9152219 C12.0803045,9.8054524 12.1812677,9.6747032 12.2218031,9.6615908 C12.468769,9.5192277 12.8958924,9.569804 13.1770131,9.4401787 C13.8691181,9.1183631 13.6240289,8.5328012 13.3537927,8.4848473 C13.0058635,8.4204092 12.376063,8.2544438 12.2525801,8.1821383 C12.0851837,8.0764899 11.7939291,7.5497464 11.5188136,7.420121 C11.2155486,7.3384496 11.3198898,6.8424265 11.0395197,6.7349049 C10.9190394,6.7142997 10.7407585,6.775366 10.5440866,6.873147 C10.5320761,6.7697464 10.4577612,6.2070375 10.1473648,6.0223401 C9.9150367,5.8900922 9.8302126,6.0961441 9.8410971,6.2310144 C9.8542336,6.3505245 10.181895,6.5164899 10.2430735,7.0477291 C10.1871496,7.0836945 10.1331024,7.114415 10.0756772,7.1548761 C10.0317638,6.9353372 9.9330525,6.5962882 9.705979,6.4614179 C9.4736509,6.3280461 9.3888268,6.5352219 9.4008373,6.668219 C9.4117218,6.7836081 9.6999738,6.9327147 9.7908031,7.3815331 C9.7217428,7.4381037 9.6571864,7.4957983 9.5926299,7.5549914 C9.1275984,7.4272392 9.0026142,7.1125418 8.8862625,7.0908127 C8.7556483,7.0623401 8.5428373,7.1286513 8.6509318,7.3732911 C8.7646562,7.6179308 9.113336,7.7520519 9.326147,7.8149914 C9.278105,7.866317 9.2386955,7.9165187 9.1970341,7.9670951 C8.658063,7.8588242 8.5259475,7.5081614 8.4058425,7.4811873 C8.2733517,7.4568357 8.0594147,7.5227723 8.1690105,7.7647896 C8.3255223,8.1072104 8.9365564,8.2383343 8.994357,8.2503228 C8.9069055,8.3960576 8.850231,8.529804 8.8716247,8.6253372 C8.4520079,8.576634 7.707357,8.8017925 7.848105,9.296317 C7.9873517,9.3959712 8.4824094,8.9921095 8.9384331,9.217268 C9.2394462,9.6829452 9.7217428,9.7028012 9.8302126,9.7889683 C9.9983596,9.9223401 10.0250079,10.1613602 10.1023255,10.3790259 C10.2366929,10.7821383 10.5200656,11.1047032 10.755021,11.4617349 C11.0128714,11.8532334 11.2819816,12.2642133 11.5525932,12.6062594 C11.585622,12.6987954 11.6148976,12.7958271 11.5983832,12.9408127 C11.2898635,13.4297176 10.3673071,14.0017925 9.9893517,14.3554524 C9.6072677,14.7143573 5.9954856,17.4570951 5.5417139,18.6533199 C5.4415013,18.921562 5.3829501,19.2654813 5.3983386,19.6221383 C5.1776457,19.7394006 4.6938478,19.9304669 4.5414646,19.7146744 C4.2622205,19.3280461 4.8064462,19.0350778 4.6874672,18.6608127 C4.6304173,18.5165764 4.4206089,18.4206686 4.2873675,18.5165764 C3.38808136,19.1605821 3.85198688,20.3013602 4.4206089,20.5602363 C5.0459055,20.819487 5.1359843,20.1470086 5.6209081,20.4189971 C5.7361339,20.4845591 6.8823858,21.5062017 6.6894672,22.3139251 C6.677832,22.3555101 6.6339186,22.4723977 6.6110236,22.5031182 C6.3595538,22.8140692 5.9406877,23.0542133 5.655063,23.3468069 C5.0582913,23.7236945 6.2206824,26.0959135 6.1245984,27.3127435 C6.0570394,27.7754236 6.5104357,27.7214755 6.7866772,28.4460288 C6.5036798,28.4550202 6.2263123,28.5243285 6.0859396,28.7348761 C6.0859396,28.7348761 5.9665853,28.8543862 5.9665853,29.0997752 C5.9665853,29.4227147 6.2315669,29.6890836 6.5607297,29.6890836 C6.8895171,29.6890836 7.157126,29.4227147 7.157126,29.0997752 C7.157126,29.0683055 7.1556247,29.0349625 7.1507454,29.0109856 C7.2806089,29.0109856 7.4483806,29.0345879 7.6285381,29.1143862 L8.153622,29.3949914 C8.153622,29.3949914 6.3118871,30.9463746 3.30513386,30.0442421 C3.30513386,30.0442421 1.94081627,29.6100346 2.32290026,28.3999481 C2.32290026,28.3999481 2.38970866,28.1980173 2.57549606,28.081879 C2.61152756,28.2463458 2.71061417,28.3902075 2.84573228,28.4864899 C2.95758005,28.5629164 3.09269816,28.6097464 3.23832546,28.6097464 C3.61402887,28.6097464 3.91954593,28.3032911 3.91954593,27.927902 C3.91954593,27.7462017 3.84973491,27.5791124 3.73150656,27.454732 C3.70148031,27.4251354 3.67295538,27.403781 3.63654856,27.3794294 C3.63654856,27.3749337 3.6331706,27.3738098 3.6331706,27.3738098 C3.62228609,27.3651931 3.61890814,27.3629452 3.61890814,27.3629452 C3.41322835,27.2232046 3.10433333,27.1347896 2.63292126,27.2587954 C2.63292126,27.2587954 1.32002362,27.6368069 1.79706562,29.0559424 C1.79706562,29.0559424 0.91016535,28.8543862 0.57499738,29.260121 C0.57499738,29.260121 0.45939633,29.3886225 0.46953018,29.5954236 L0.46953018,29.6029164 L0.46953018,29.6100346 C0.4777874,29.6935793 0.50293438,29.7898617 0.56448819,29.8996311 C0.6568189,30.030755 0.81107874,30.1206686 0.98673228,30.1206686 C1.14774803,30.1206686 1.2903727,30.045366 1.38795801,29.9299769 C1.38795801,29.924732 1.39096063,29.924732 1.39096063,29.924732 C1.42774278,29.8790259 1.53658793,29.8160865 1.69610236,29.9820519 C3.6905958,32.0583055 6.9435643,31.201879 8.7473911,29.8112161 C8.7473911,29.8112161 9.7468898,28.8064323 10.8612388,28.1916484 C11.2954934,28.3778444 11.756021,28.5160865 12.2037874,28.6775562 C12.1715092,29.3230605 12.3055013,30.2476715 13.0276325,31.3240115 C13.0276325,31.3240115 12.519063,32.2628588 11.6595617,31.7469798 C11.6595617,31.7469798 11.0252572,31.2591988 11.564979,30.6710144 C11.564979,30.6710144 11.9264199,30.370928 12.0821811,30.7466916 C11.8975197,30.7575562 11.7488898,30.9081614 11.7488898,31.0958559 C11.7488898,31.2899193 11.9027743,31.4427723 12.0956929,31.4427723 C12.2852336,31.4427723 12.4334882,31.2974121 12.443622,31.1157118 C12.4608871,30.9744726 12.468769,30.6136945 12.158748,30.3525706 C12.158748,30.3525706 11.8847585,30.0558559 11.3679318,30.1386513 C10.610895,30.2566628 10.1826457,31.8368934 11.6775774,32.4917637 C11.6775774,32.4917637 12.8527297,33.026 13.4581339,32.1508415 C13.4581339,32.1508415 13.449126,32.0238386 13.6761995,32.2415043 C14.9196614,33.4452219 17.6967139,33.0960576 18.7994278,32.2774697 C18.7994278,32.2774697 19.0786719,32.101389 19.384189,31.9564035 C19.3984514,32.4194582 19.7771575,32.7993429 20.2496955,32.7993429 C20.7252362,32.7993429 21.1125748,32.4089683 21.1125748,31.9331758 C21.1125748,31.507585 20.8051811,31.1557983 20.3987008,31.0831182 C20.3799344,31.0767493 19.8285774,30.9205245 19.022748,31.4079308 C19.022748,31.4079308 18.1715039,31.9402939 18.2210472,31.8586225 C18.5074226,31.409804 18.6853281,30.802513 18.8084357,30.1532622 C20.0188688,30.2862594 21.2619554,30.3742997 22.5489554,30.4023977 C22.5335669,30.7759135 22.482147,31.2322248 22.3372703,31.581389 C22.3372703,31.581389 21.8831234,31.7690836 21.8722388,32.0890259 C21.8722388,32.0890259 21.8215696,32.3224265 22.2254226,32.6461153 C22.2254226,32.6461153 22.5196798,32.9720519 22.6052546,33.2238098 C22.6052546,33.2238098 22.6289003,33.5752219 23.1138241,33.5752219 C23.1498556,33.5752219 23.1783806,33.5711009 23.2054042,33.5651066 C23.2361811,33.5711009 23.266958,33.5752219 23.2992362,33.5752219 C23.7841601,33.5752219 23.8078058,33.2238098 23.8078058,33.2238098 C23.8937559,32.9720519 24.1868871,32.6461153 24.1868871,32.6461153 C24.5903648,32.3224265 24.5400709,32.0890259 24.5400709,32.0890259 C24.532189,31.7690836 24.0739134,31.581389 24.0739134,31.581389 C23.9301627,31.2322248 23.8787428,30.7759135 23.8633543,30.403147 C25.151105,30.3754236 26.3941916,30.2881326 27.6046247,30.1558847 C27.7277323,30.8043862 27.9045118,31.4101787 28.1920131,31.8586225 C28.2434331,31.9402939 27.392189,31.4079308 27.392189,31.4079308 C26.5856089,30.9205245 26.0293727,31.0767493 26.011357,31.0831182 C25.6060026,31.1557983 25.3004856,31.507585 25.3004856,31.9331758 C25.3004856,32.4089683 25.6870735,32.7993429 26.1637402,32.7993429 C26.6347769,32.7993429 27.0149843,32.4194582 27.0269948,31.9564035 C27.3340131,32.101389 27.6136325,32.2774697 27.6136325,32.2774697 C28.7129685,33.0960576 31.493399,33.4452219 32.7376115,32.2415043 C32.9639344,32.0238386 32.9541759,32.1508415 32.9541759,32.1508415 C33.5603307,33.026 34.7373596,32.4917637 34.7373596,32.4917637 C36.2292887,31.8368934 35.8002887,30.2566628 35.0470052,30.1386513 C34.5290525,30.0558559 34.2524357,30.3525706 34.2524357,30.3525706 C33.945042,30.6136945 33.9506719,30.9744726 33.9694383,31.1157118 C33.9784462,31.2974121 34.1289528,31.4427723 34.3154908,31.4427723 C34.5084094,31.4427723 34.6641706,31.2899193 34.6641706,31.0958559 C34.6641706,30.9081614 34.51479,30.7575562 34.3316299,30.7466916 C34.4866404,30.370928 34.8480814,30.6710144 34.8480814,30.6710144 C35.3878031,31.2591988 34.751622,31.7469798 34.751622,31.7469798 C33.8939974,32.2628588 33.3846772,31.3240115 33.3846772,31.3240115 C34.1049318,30.2514179 34.2408005,29.3283055 34.209273,28.6828012 C34.660042,28.5217061 35.1220709,28.3815908 35.5570761,28.1942709 C36.6702992,28.8105533 37.665294,29.8112161 37.665294,29.8112161 C39.4687454,31.201879 42.7205879,32.0583055 44.716958,29.9820519 C44.8768478,29.8160865 44.9860682,29.8790259 45.0209738,29.924732 C45.0209738,29.924732 45.0251024,29.924732 45.0251024,29.9299769 C45.120811,30.045366 45.264937,30.1206686 45.4263281,30.1206686 C45.6019816,30.1206686 45.7536142,30.030755 45.8489475,29.8996311 C45.910126,29.7898617 45.9345223,29.6935793 45.9442808,29.6100346 L45.9442808,29.6062882 L45.9442808,29.5954236 C45.9525381,29.3886225 45.8384383,29.260121 45.8384383,29.260121" id="Fill-24"></path>
            </g>
        </g>
    </g>
</svg>